<svg xmlns="http://www.w3.org/2000/svg" viewBox="0 0 1496.823 177.817"><defs><style>.cls-1{fill:#008fd3;}.cls-2,.cls-3,.cls-4{fill:#f0ab00;}.cls-3{opacity:0.7;}.cls-4{opacity:0.4;}.cls-5{fill:#970a82;}.cls-6{fill:#e35500;}.cls-7{fill:none;stroke:#231f20;stroke-miterlimit:10;stroke-width:3px;}.cls-8{fill:#231f20;}</style></defs><g id="Ebene_2" data-name="Ebene 2"><g id="Ebene_2-2" data-name="Ebene 2"><path d="M7.592,158.6v-1.819H22.973V158.6h-6.7V177.5H14.292V158.6Z"/><path d="M22.372,177.5V162.751H24.3v2.936h.055a7.5,7.5,0,0,1,2.277-2.307,6.411,6.411,0,0,1,3.575-.916h.341l-.191,1.818h-.287a1.175,1.175,0,0,1-.191-.014,1.032,1.032,0,0,0-.11-.013,5.508,5.508,0,0,0-3.213.955,7,7,0,0,0-2.256,2.715V177.5Z"/><path d="M32.01,174.048a4.2,4.2,0,0,1,.506-2.028A5,5,0,0,1,34.2,170.3a12.468,12.468,0,0,1,3.083-1.4,30.486,30.486,0,0,1,4.724-1.037v-.758a3.083,3.083,0,0,0-.765-2.292,3.045,3.045,0,0,0-2.225-.751,6.586,6.586,0,0,0-3.046.661,12.531,12.531,0,0,0-2.458,1.68l-1.047-1.212a11.849,11.849,0,0,1,2.941-1.974,8.8,8.8,0,0,1,3.788-.754,4.656,4.656,0,0,1,3.616,1.243,4.963,4.963,0,0,1,1.123,3.455v6.695a20.845,20.845,0,0,0,.1,2.213,5.759,5.759,0,0,0,.314,1.433H42.348c-.092-.322-.172-.644-.24-.97a5.589,5.589,0,0,1-.1-1.147,9.226,9.226,0,0,1-2.709,1.772,8.041,8.041,0,0,1-3.106.591,4.46,4.46,0,0,1-3.083-.981A3.459,3.459,0,0,1,32.01,174.048Zm1.928-.245a2.146,2.146,0,0,0,.71,1.759,2.991,2.991,0,0,0,1.965.587,6.884,6.884,0,0,0,2.907-.614,9.122,9.122,0,0,0,2.485-1.7v-4.585a30,30,0,0,0-3.924.88,10.947,10.947,0,0,0-2.471,1.057,3.688,3.688,0,0,0-1.3,1.229A2.757,2.757,0,0,0,33.938,173.8Z"/><path d="M48.225,177.5V162.751h1.928v2.324a10.9,10.9,0,0,1,2.468-1.839,6.455,6.455,0,0,1,3.165-.772,4.354,4.354,0,0,1,3.288,1.148,4.478,4.478,0,0,1,1.1,3.227V177.5H58.247V167.194a3.292,3.292,0,0,0-.711-2.317,2.924,2.924,0,0,0-2.229-.759,5.409,5.409,0,0,0-2.659.684,12.239,12.239,0,0,0-2.5,1.886V177.5Z"/><path d="M63.456,175.164l1.23-1.122a6.578,6.578,0,0,0,1.948,1.559,5.643,5.643,0,0,0,2.646.576,5.093,5.093,0,0,0,2.871-.665,2.191,2.191,0,0,0,.971-1.926,2.031,2.031,0,0,0-.957-1.823,10.435,10.435,0,0,0-3.1-1.125l-2.213-.689a5.214,5.214,0,0,1-1.629-.8,3.185,3.185,0,0,1-.963-1.161,3.8,3.8,0,0,1-.322-1.652,3.42,3.42,0,0,1,.335-1.485,3.635,3.635,0,0,1,.978-1.238,4.8,4.8,0,0,1,1.565-.842,6.722,6.722,0,0,1,2.126-.307,7.84,7.84,0,0,1,3.2.574,7.509,7.509,0,0,1,2.27,1.56l-1.094,1.286a6.549,6.549,0,0,0-1.9-1.328,5.665,5.665,0,0,0-2.407-.493,5.169,5.169,0,0,0-1.476.182,2.867,2.867,0,0,0-.978.485,1.987,1.987,0,0,0-.56.687,1.83,1.83,0,0,0-.185.8,1.788,1.788,0,0,0,.832,1.595,8.991,8.991,0,0,0,2.771.991l2.416.736a5.529,5.529,0,0,1,1.768.869A3.455,3.455,0,0,1,74.65,171.7,4.421,4.421,0,0,1,75,173.562a3.611,3.611,0,0,1-.438,1.793,4.081,4.081,0,0,1-1.189,1.33,5.321,5.321,0,0,1-1.8.819,9.241,9.241,0,0,1-2.31.272,7.729,7.729,0,0,1-3.466-.734A6.323,6.323,0,0,1,63.456,175.164Z"/><path d="M77.483,174.048a4.2,4.2,0,0,1,.506-2.028,4.988,4.988,0,0,1,1.682-1.719,12.468,12.468,0,0,1,3.083-1.4,30.471,30.471,0,0,1,4.723-1.037v-.758a3.087,3.087,0,0,0-.764-2.292,3.045,3.045,0,0,0-2.225-.751,6.583,6.583,0,0,0-3.046.661,12.5,12.5,0,0,0-2.458,1.68l-1.047-1.212a11.831,11.831,0,0,1,2.941-1.974,8.8,8.8,0,0,1,3.788-.754,4.656,4.656,0,0,1,3.616,1.243,4.963,4.963,0,0,1,1.123,3.455v6.695a20.845,20.845,0,0,0,.1,2.213,5.759,5.759,0,0,0,.314,1.433H87.821c-.092-.322-.172-.644-.24-.97a5.514,5.514,0,0,1-.1-1.147,9.213,9.213,0,0,1-2.709,1.772,8.033,8.033,0,0,1-3.105.591,4.458,4.458,0,0,1-3.083-.981A3.455,3.455,0,0,1,77.483,174.048Zm1.928-.245a2.146,2.146,0,0,0,.71,1.759,2.99,2.99,0,0,0,1.965.587,6.891,6.891,0,0,0,2.907-.614,9.117,9.117,0,0,0,2.484-1.7v-4.585a30.043,30.043,0,0,0-3.924.88,10.957,10.957,0,0,0-2.47,1.057,3.68,3.68,0,0,0-1.3,1.229A2.757,2.757,0,0,0,79.411,173.8Z"/><path d="M92.85,170.134a9.508,9.508,0,0,1,.557-3.425,7.028,7.028,0,0,1,1.476-2.393,5.735,5.735,0,0,1,2.117-1.4,6.818,6.818,0,0,1,2.426-.451,6.242,6.242,0,0,1,2.085.321,5.035,5.035,0,0,1,1.579.882,6.2,6.2,0,0,1,1.163,1.292,8.448,8.448,0,0,1,.82,1.538l-1.641.725a6.013,6.013,0,0,0-1.565-2.3,3.712,3.712,0,0,0-2.5-.8,4.707,4.707,0,0,0-1.648.308,3.788,3.788,0,0,0-1.483,1.025,5.374,5.374,0,0,0-1.06,1.859,8.48,8.48,0,0,0-.4,2.8,8.687,8.687,0,0,0,.349,2.584,5.8,5.8,0,0,0,.95,1.887,4.144,4.144,0,0,0,1.429,1.176,3.992,3.992,0,0,0,1.8.41,3.923,3.923,0,0,0,2.5-.745,6.657,6.657,0,0,0,1.744-2.4l1.558.67a11.182,11.182,0,0,1-.984,1.7,5.718,5.718,0,0,1-1.265,1.306,5.6,5.6,0,0,1-1.613.827,6.423,6.423,0,0,1-2.017.294,6.005,6.005,0,0,1-2.42-.506,5.845,5.845,0,0,1-2.041-1.49,7.3,7.3,0,0,1-1.394-2.406A9.6,9.6,0,0,1,92.85,170.134Z"/><path d="M106.987,164.405v-1.654h2.584V157.46H111.5v5.291h3.828v1.654H111.5v9.267a2.911,2.911,0,0,0,.478,1.8,2.226,2.226,0,0,0,1.846.623h.827a2.5,2.5,0,0,0,.718-.1v1.531q-.342.054-.875.11a10.323,10.323,0,0,1-1.039.054,4.251,4.251,0,0,1-3-.854,3.746,3.746,0,0,1-.882-2.783v-9.652Z"/><path d="M118.9,159.333v-2.078h2.051v2.078Zm.055,18.17V162.751h1.928V177.5Z"/><path d="M124.665,170.134a9.338,9.338,0,0,1,.532-3.275,7.163,7.163,0,0,1,1.441-2.406,6.016,6.016,0,0,1,2.131-1.483,6.707,6.707,0,0,1,2.588-.506,6.619,6.619,0,0,1,2.56.506,6.049,6.049,0,0,1,2.128,1.483,7.167,7.167,0,0,1,1.443,2.406,10.328,10.328,0,0,1,0,6.556,7.257,7.257,0,0,1-1.443,2.406,6.017,6.017,0,0,1-2.128,1.49,6.729,6.729,0,0,1-5.12,0,6.1,6.1,0,0,1-2.145-1.49,7.118,7.118,0,0,1-1.455-2.406A9.326,9.326,0,0,1,124.665,170.134Zm1.927-.028a8.927,8.927,0,0,0,.294,2.325,5.761,5.761,0,0,0,.9,1.92,4.514,4.514,0,0,0,1.5,1.32,4.621,4.621,0,0,0,4.066.041,4.466,4.466,0,0,0,1.486-1.251,5.7,5.7,0,0,0,.938-1.9,8.745,8.745,0,0,0,.321-2.454,8.381,8.381,0,0,0-.307-2.29,6,6,0,0,0-.9-1.9,4.5,4.5,0,0,0-1.471-1.306,4.167,4.167,0,0,0-2.061-.492,4.343,4.343,0,0,0-2.006.451,4.431,4.431,0,0,0-1.5,1.244,5.618,5.618,0,0,0-.938,1.9A8.559,8.559,0,0,0,126.592,170.106Z"/><path d="M141.672,177.5V162.751H143.6v2.324a10.9,10.9,0,0,1,2.468-1.839,6.458,6.458,0,0,1,3.165-.772,4.353,4.353,0,0,1,3.288,1.148,4.475,4.475,0,0,1,1.1,3.227V177.5h-1.928V167.194a3.287,3.287,0,0,0-.711-2.317,2.923,2.923,0,0,0-2.228-.759,5.413,5.413,0,0,0-2.66.684,12.239,12.239,0,0,0-2.5,1.886V177.5Z"/><path d="M133.426,87.618H115.412a6.7,6.7,0,0,1-6.7-6.7V70.338a6.7,6.7,0,0,1,6.7-6.7h18.014a6.7,6.7,0,0,1,6.7,6.7V80.922A6.7,6.7,0,0,1,133.426,87.618ZM115.412,66.989a3.354,3.354,0,0,0-3.349,3.349V80.922a3.353,3.353,0,0,0,3.349,3.348h18.014a3.352,3.352,0,0,0,3.348-3.348V70.338a3.353,3.353,0,0,0-3.348-3.349ZM53.633,84.277H12.066v3.349H53.633Zm10.39,0H60.56v3.349h3.463Zm10.392,0H70.951v3.349h3.464Zm10.392,0H81.343v3.349h3.464Zm67.175-58.885A13.237,13.237,0,0,0,139.074,15H13.221A13.236,13.236,0,0,0,0,28.221v63.5a13.238,13.238,0,0,0,10.392,12.908A13.22,13.22,0,0,0,23.276,115H149.13a13.234,13.234,0,0,0,13.219-13.22v-63.5A13.221,13.221,0,0,0,151.982,25.392ZM159,101.78a9.884,9.884,0,0,1-9.871,9.872H23.276a9.873,9.873,0,0,1-9.337-6.707H139.074a13.234,13.234,0,0,0,13.22-13.22V63.043H159Zm0-59.406h-6.713v3.349h6.7V59.694h-6.7V51.313h-3.348V91.725a9.884,9.884,0,0,1-9.872,9.872H13.221a9.884,9.884,0,0,1-9.873-9.872v-63.5a9.884,9.884,0,0,1,9.873-9.873H139.074a9.884,9.884,0,0,1,9.872,9.873v5.772h3.348V28.939A9.873,9.873,0,0,1,159,38.276Z"/><rect class="cls-1" x="12.059" y="33.993" width="140.229" height="17.32"/><rect class="cls-2" x="117.231" y="33.993" width="35.057" height="17.32"/><rect class="cls-3" x="82.182" y="33.993" width="35.057" height="17.32"/><rect class="cls-4" x="47.126" y="33.993" width="35.057" height="17.32"/><path d="M384.651,61.115V40.389h5.236q5.087,0,7.691,2.582t2.6,7.719q0,5.172-2.632,7.8t-7.663,2.627Zm1.982-1.818h3.555a8.107,8.107,0,0,0,5.927-2.046q2.085-2.044,2.085-6.561,0-4.391-2.1-6.437a8.2,8.2,0,0,0-5.968-2.046h-3.5Z"/><path d="M402.9,57.66a4.2,4.2,0,0,1,.506-2.027,5,5,0,0,1,1.681-1.72,12.54,12.54,0,0,1,3.083-1.4,30.5,30.5,0,0,1,4.724-1.038v-.757a3.081,3.081,0,0,0-.765-2.292,3.043,3.043,0,0,0-2.224-.751,6.571,6.571,0,0,0-3.046.661,12.466,12.466,0,0,0-2.458,1.679l-1.047-1.211a11.821,11.821,0,0,1,2.94-1.975,8.811,8.811,0,0,1,3.789-.754,4.656,4.656,0,0,1,3.616,1.243,4.965,4.965,0,0,1,1.123,3.455v6.7a20.838,20.838,0,0,0,.1,2.212,5.7,5.7,0,0,0,.314,1.433h-1.994c-.092-.321-.172-.643-.24-.97A5.514,5.514,0,0,1,412.9,59a9.213,9.213,0,0,1-2.709,1.772,8.033,8.033,0,0,1-3.1.591,4.461,4.461,0,0,1-3.083-.98A3.459,3.459,0,0,1,402.9,57.66Zm1.928-.245a2.149,2.149,0,0,0,.71,1.76,3,3,0,0,0,1.965.587,6.891,6.891,0,0,0,2.907-.615,9.11,9.11,0,0,0,2.484-1.7V52.857a30.043,30.043,0,0,0-3.924.88A10.909,10.909,0,0,0,406.5,54.8a3.687,3.687,0,0,0-1.3,1.228A2.76,2.76,0,0,0,404.831,57.415Z"/><path d="M417.546,48.017V46.363h2.584V41.072h1.927v5.291h3.828v1.654h-3.828v9.267a2.9,2.9,0,0,0,.479,1.8,2.223,2.223,0,0,0,1.845.623h.828a2.459,2.459,0,0,0,.717-.1v1.531q-.34.056-.875.11a10.308,10.308,0,0,1-1.039.054,4.251,4.251,0,0,1-3-.854,3.743,3.743,0,0,1-.881-2.782V48.017Z"/><path d="M428.333,57.66a4.2,4.2,0,0,1,.506-2.027,4.986,4.986,0,0,1,1.681-1.72,12.523,12.523,0,0,1,3.083-1.4,30.5,30.5,0,0,1,4.724-1.038v-.757a3.081,3.081,0,0,0-.765-2.292,3.044,3.044,0,0,0-2.224-.751,6.571,6.571,0,0,0-3.046.661,12.466,12.466,0,0,0-2.458,1.679l-1.047-1.211a11.8,11.8,0,0,1,2.94-1.975,8.807,8.807,0,0,1,3.788-.754,4.656,4.656,0,0,1,3.616,1.243,4.961,4.961,0,0,1,1.124,3.455v6.7a21.147,21.147,0,0,0,.1,2.212,5.745,5.745,0,0,0,.315,1.433h-1.994c-.092-.321-.172-.643-.241-.97a5.589,5.589,0,0,1-.1-1.147,9.226,9.226,0,0,1-2.709,1.772,8.038,8.038,0,0,1-3.106.591,4.464,4.464,0,0,1-3.083-.98A3.462,3.462,0,0,1,428.333,57.66Zm1.927-.245a2.152,2.152,0,0,0,.71,1.76,3,3,0,0,0,1.965.587,6.885,6.885,0,0,0,2.907-.615,9.1,9.1,0,0,0,2.485-1.7V52.857a30,30,0,0,0-3.924.88,10.939,10.939,0,0,0-2.471,1.058,3.7,3.7,0,0,0-1.3,1.228A2.76,2.76,0,0,0,430.26,57.415Z"/><path d="M449.839,58.776l1.23-1.122a6.585,6.585,0,0,0,1.948,1.56,5.64,5.64,0,0,0,2.646.575,5.1,5.1,0,0,0,2.871-.665,2.19,2.19,0,0,0,.971-1.926,2.03,2.03,0,0,0-.958-1.823,10.472,10.472,0,0,0-3.1-1.125l-2.213-.689a5.213,5.213,0,0,1-1.629-.8,3.191,3.191,0,0,1-.964-1.162,3.8,3.8,0,0,1-.321-1.652,3.4,3.4,0,0,1,.335-1.484,3.629,3.629,0,0,1,.978-1.239,4.8,4.8,0,0,1,1.565-.841,6.72,6.72,0,0,1,2.126-.308,7.84,7.84,0,0,1,3.2.574,7.539,7.539,0,0,1,2.27,1.56L459.7,49.5a6.54,6.54,0,0,0-1.9-1.327,5.665,5.665,0,0,0-2.407-.493,5.172,5.172,0,0,0-1.476.181,2.841,2.841,0,0,0-.978.486,1.984,1.984,0,0,0-.56.686,1.833,1.833,0,0,0-.185.8,1.789,1.789,0,0,0,.832,1.6,9.021,9.021,0,0,0,2.771.99l2.416.736a5.529,5.529,0,0,1,1.768.869,3.472,3.472,0,0,1,1.056,1.289,4.442,4.442,0,0,1,.345,1.864,3.613,3.613,0,0,1-.438,1.793,4.1,4.1,0,0,1-1.189,1.33,5.339,5.339,0,0,1-1.8.818,9.2,9.2,0,0,1-2.311.273,7.728,7.728,0,0,1-3.465-.735A6.323,6.323,0,0,1,449.839,58.776Z"/><path d="M463.948,53.719a9.158,9.158,0,0,1,.574-3.4,6.991,6.991,0,0,1,1.5-2.379,6.2,6.2,0,0,1,2.071-1.4,6.1,6.1,0,0,1,2.318-.465,5.807,5.807,0,0,1,2.4.492,5.219,5.219,0,0,1,1.9,1.456,7.139,7.139,0,0,1,1.265,2.407,10.8,10.8,0,0,1,.465,3.315v.369H465.876a7.235,7.235,0,0,0,.376,2.432,5.561,5.561,0,0,0,1,1.786,4.25,4.25,0,0,0,3.268,1.5,4.808,4.808,0,0,0,2.7-.693,6.73,6.73,0,0,0,1.894-2.013l1.2.961a7.764,7.764,0,0,1-2.4,2.447,6.451,6.451,0,0,1-3.521.9,6.317,6.317,0,0,1-2.461-.493,5.659,5.659,0,0,1-2.055-1.476,7.487,7.487,0,0,1-1.408-2.406A9.576,9.576,0,0,1,463.948,53.719ZM465.9,52.57h8.654a9.346,9.346,0,0,0-.376-1.931,4.934,4.934,0,0,0-.793-1.568,3.482,3.482,0,0,0-1.271-1.031,3.98,3.98,0,0,0-1.743-.364,4.1,4.1,0,0,0-1.545.3,4.008,4.008,0,0,0-1.347.9,5.1,5.1,0,0,0-1.025,1.519A7.052,7.052,0,0,0,465.9,52.57Z"/><path d="M480.081,61.115V46.363h1.927v2.324a10.925,10.925,0,0,1,2.468-1.839,6.458,6.458,0,0,1,3.165-.772,4.353,4.353,0,0,1,3.288,1.148,4.475,4.475,0,0,1,1.1,3.227V61.115H490.1V50.806a3.287,3.287,0,0,0-.711-2.317,2.921,2.921,0,0,0-2.228-.759,5.406,5.406,0,0,0-2.659.684,12.187,12.187,0,0,0-2.5,1.887V61.115Z"/><path d="M494.778,48.017V46.363h2.584V41.072h1.928v5.291h3.828v1.654H499.29v9.267a2.909,2.909,0,0,0,.478,1.8,2.226,2.226,0,0,0,1.846.623h.827a2.462,2.462,0,0,0,.718-.1v1.531q-.342.056-.875.11a10.323,10.323,0,0,1-1.039.054,4.251,4.251,0,0,1-3-.854,3.743,3.743,0,0,1-.882-2.782V48.017Z"/><path d="M388.493,84.017V82.363h2.584V77.072h1.928v5.291h3.828v1.654h-3.828v9.267a2.909,2.909,0,0,0,.478,1.8,2.225,2.225,0,0,0,1.846.623h.827a2.466,2.466,0,0,0,.718-.1v1.531q-.342.056-.875.11a10.323,10.323,0,0,1-1.039.054,4.251,4.251,0,0,1-3-.854,3.743,3.743,0,0,1-.882-2.782V84.017Z"/><path d="M399.2,89.746a9.356,9.356,0,0,1,.532-3.274,7.17,7.17,0,0,1,1.442-2.407,6.016,6.016,0,0,1,2.13-1.483,6.707,6.707,0,0,1,2.588-.506,6.619,6.619,0,0,1,2.56.506,6.062,6.062,0,0,1,2.128,1.483,7.156,7.156,0,0,1,1.443,2.407,10.325,10.325,0,0,1,0,6.555,7.241,7.241,0,0,1-1.443,2.406,6.007,6.007,0,0,1-2.128,1.491,6.729,6.729,0,0,1-5.12,0,6.088,6.088,0,0,1-2.145-1.491,7.134,7.134,0,0,1-1.455-2.406A9.349,9.349,0,0,1,399.2,89.746Zm1.928-.027a8.883,8.883,0,0,0,.294,2.324,5.774,5.774,0,0,0,.9,1.921,4.522,4.522,0,0,0,1.5,1.319,4.621,4.621,0,0,0,4.066.041,4.446,4.446,0,0,0,1.486-1.251,5.706,5.706,0,0,0,.938-1.9,8.753,8.753,0,0,0,.322-2.454,8.371,8.371,0,0,0-.308-2.29,6,6,0,0,0-.9-1.9,4.487,4.487,0,0,0-1.471-1.305,4.157,4.157,0,0,0-2.061-.493,4.356,4.356,0,0,0-2.006.451,4.441,4.441,0,0,0-1.5,1.245,5.613,5.613,0,0,0-.938,1.9A8.562,8.562,0,0,0,401.126,89.719Z"/><path d="M422.536,97.115V82.363h1.928v2.324a10.9,10.9,0,0,1,2.467-1.839,6.46,6.46,0,0,1,3.165-.772,4.353,4.353,0,0,1,3.288,1.148,4.475,4.475,0,0,1,1.1,3.227V97.115h-1.928V86.806a3.287,3.287,0,0,0-.711-2.317,2.92,2.92,0,0,0-2.228-.759,5.409,5.409,0,0,0-2.659.684,12.156,12.156,0,0,0-2.5,1.887V97.115Z"/><path d="M437.958,89.746a9.333,9.333,0,0,1,.532-3.274,7.168,7.168,0,0,1,1.441-2.407,6.029,6.029,0,0,1,2.131-1.483,6.707,6.707,0,0,1,2.588-.506,6.619,6.619,0,0,1,2.56.506,6.062,6.062,0,0,1,2.128,1.483,7.172,7.172,0,0,1,1.443,2.407,10.325,10.325,0,0,1,0,6.555,7.257,7.257,0,0,1-1.443,2.406,6.007,6.007,0,0,1-2.128,1.491,6.731,6.731,0,0,1-5.121,0,6.093,6.093,0,0,1-2.144-1.491,7.118,7.118,0,0,1-1.455-2.406A9.326,9.326,0,0,1,437.958,89.746Zm1.927-.027a8.925,8.925,0,0,0,.294,2.324,5.776,5.776,0,0,0,.9,1.921,4.522,4.522,0,0,0,1.5,1.319,4.621,4.621,0,0,0,4.066.041,4.466,4.466,0,0,0,1.486-1.251,5.706,5.706,0,0,0,.938-1.9,8.755,8.755,0,0,0,.321-2.454,8.371,8.371,0,0,0-.307-2.29,6,6,0,0,0-.9-1.9,4.5,4.5,0,0,0-1.471-1.305,4.157,4.157,0,0,0-2.061-.493,4.356,4.356,0,0,0-2.006.451,4.422,4.422,0,0,0-1.5,1.245,5.613,5.613,0,0,0-.938,1.9A8.561,8.561,0,0,0,439.885,89.719Z"/><path d="M454.145,89.725a10.662,10.662,0,0,1,.478-3.361,6.766,6.766,0,0,1,1.318-2.386,5.4,5.4,0,0,1,1.986-1.424,6.325,6.325,0,0,1,2.459-.478,5.665,5.665,0,0,1,2.67.648,7.328,7.328,0,0,1,2.1,1.623V76.389h1.928V93.478a21.063,21.063,0,0,0,.095,2.208,4.952,4.952,0,0,0,.342,1.429h-2.025a6.585,6.585,0,0,1-.238-.991,6.961,6.961,0,0,1-.1-1.184,9.045,9.045,0,0,1-2.081,1.706,5.434,5.434,0,0,1-2.849.715,6.207,6.207,0,0,1-2.376-.459,5.006,5.006,0,0,1-1.931-1.412,7.1,7.1,0,0,1-1.291-2.386A10.692,10.692,0,0,1,454.145,89.725Zm1.928.028a8.92,8.92,0,0,0,.349,2.641,5.353,5.353,0,0,0,.965,1.862,3.869,3.869,0,0,0,1.431,1.095,4.265,4.265,0,0,0,1.732.356,4.649,4.649,0,0,0,2.458-.651,10.524,10.524,0,0,0,2.143-1.772V86.112a9.47,9.47,0,0,0-2.2-1.806,4.764,4.764,0,0,0-2.4-.63,4.449,4.449,0,0,0-1.8.362,3.653,3.653,0,0,0-1.417,1.109,5.5,5.5,0,0,0-.925,1.9A9.716,9.716,0,0,0,456.073,89.753Z"/><path d="M470.715,89.719a9.157,9.157,0,0,1,.575-3.4,6.961,6.961,0,0,1,1.5-2.379,6.193,6.193,0,0,1,2.071-1.4,6.092,6.092,0,0,1,2.317-.465,5.815,5.815,0,0,1,2.4.492,5.219,5.219,0,0,1,1.9,1.456,7.175,7.175,0,0,1,1.265,2.407,10.828,10.828,0,0,1,.465,3.315v.369H472.643a7.235,7.235,0,0,0,.376,2.432,5.544,5.544,0,0,0,1,1.786,4.25,4.25,0,0,0,3.268,1.5,4.811,4.811,0,0,0,2.7-.693,6.727,6.727,0,0,0,1.893-2.013l1.2.961a7.777,7.777,0,0,1-2.4,2.447,6.445,6.445,0,0,1-3.52.9,6.313,6.313,0,0,1-2.461-.493,5.65,5.65,0,0,1-2.055-1.476,7.469,7.469,0,0,1-1.408-2.406A9.552,9.552,0,0,1,470.715,89.719Zm1.956-1.149h8.654a9.48,9.48,0,0,0-.376-1.931,4.955,4.955,0,0,0-.793-1.568,3.493,3.493,0,0,0-1.272-1.031,3.976,3.976,0,0,0-1.743-.364,4.1,4.1,0,0,0-1.545.3,4,4,0,0,0-1.346.9,5.1,5.1,0,0,0-1.026,1.519A7.053,7.053,0,0,0,472.671,88.57Z"/><path d="M485.536,94.776l1.23-1.122a6.6,6.6,0,0,0,1.948,1.56,5.643,5.643,0,0,0,2.646.575,5.093,5.093,0,0,0,2.871-.665A2.188,2.188,0,0,0,495.2,93.2a2.031,2.031,0,0,0-.957-1.823,10.492,10.492,0,0,0-3.1-1.125l-2.213-.689a5.213,5.213,0,0,1-1.629-.8,3.188,3.188,0,0,1-.963-1.162,3.8,3.8,0,0,1-.322-1.652,3.415,3.415,0,0,1,.335-1.484,3.629,3.629,0,0,1,.978-1.239,4.813,4.813,0,0,1,1.565-.841,6.72,6.72,0,0,1,2.126-.308,7.837,7.837,0,0,1,3.2.574,7.527,7.527,0,0,1,2.27,1.56L495.393,85.5a6.514,6.514,0,0,0-1.9-1.327,5.664,5.664,0,0,0-2.406-.493,5.18,5.18,0,0,0-1.477.181,2.85,2.85,0,0,0-.978.486,1.984,1.984,0,0,0-.56.686,1.833,1.833,0,0,0-.185.8,1.791,1.791,0,0,0,.832,1.6,9.021,9.021,0,0,0,2.771.99l2.416.736a5.529,5.529,0,0,1,1.768.869,3.463,3.463,0,0,1,1.056,1.289,4.426,4.426,0,0,1,.345,1.864,3.613,3.613,0,0,1-.438,1.793,4.1,4.1,0,0,1-1.189,1.33,5.339,5.339,0,0,1-1.805.818,9.188,9.188,0,0,1-2.31.273,7.73,7.73,0,0,1-3.466-.735A6.331,6.331,0,0,1,485.536,94.776Z"/><path d="M721.271,110.324v3.936h-15.76v-3.936Zm-66.99-78.846h-3.936v3.936h3.936Zm-11.824,3.936H646.4V31.478h-3.944Zm-7.881,0h3.936V31.478h-3.936ZM638.512,7.87h-3.936v3.935h3.936Zm0,15.739h-3.936v3.935h3.936Zm0-23.609h-3.936V3.936h3.936ZM646.4,0h-3.944V3.936H646.4Zm7.881,0h-3.936V3.936h3.936Zm0,15.739h-3.936v3.935h3.936Zm0,7.87h-3.936v3.935h3.936Zm0-15.739h-3.936v3.935h3.936ZM626.69,31.478h-3.936v3.936h3.936Zm-11.824,3.936h3.944V31.478h-3.944Zm-3.945,0V31.478h-3.936v3.936Zm0-27.544h-3.936v3.935h3.936Zm0-7.87h-3.936V3.936h3.936Zm7.888,0h-3.944V3.936h3.944Zm7.881,0h-3.936V3.936h3.936Zm0,7.87h-3.936v3.935h3.936Zm0,15.739h-3.936v3.935h3.936Zm11.822-3.934V15.74H622.754v3.935ZM764.626,31.517V66.934h-19.7V51.192h-7.882V66.934h-19.7V51.192h-7.888V66.934h-19.7V60.057l-7.76,20.689,8.142,21.708h3.553v3.936H691.6l1.476,3.934h.6v3.936h-3.935v-1.615l-7.887-21.029v6.85h-19.7V82.727h-7.871V98.466h-19.7V82.727H626.69V98.466H606.985V81.128L599.1,60.1v6.835H579.394V51.192H571.5V47.257h7.893V31.517H599.1v6.827l7.886-21.028V15.74h3.936v3.935H610.3l-1.475,3.934h2.092v3.935h-3.568l-8.129,21.678,7.761,20.7V63.052H626.69V78.791h7.886V63.052h19.7V78.791h7.871V63.052h19.7v6.825l7.887-21.029V31.517h19.7v15.74h7.888V31.517h19.7v15.74h7.882V31.517ZM595.163,35.452H583.33V63h11.833Zm27.591,31.535H610.921V94.53h11.833Zm27.591,0H638.512V94.53h11.833Zm27.576,0H666.087V94.53h11.834Zm27.59-31.535H693.678V63h11.833Zm27.592,0H721.271V63H733.1Zm27.587,0H748.857V63H760.69ZM733.1,130h3.936v-3.936H733.1Zm-7.888,0h3.944v-3.936h-3.944Zm-7.88,0h3.936v-3.936h-3.936Zm0-7.87h3.936v-3.936h-3.936Zm0-15.74h3.936v-3.936h-3.936Zm0-7.871h3.936V94.583h-3.936Zm7.88,0h3.944V94.583h-3.944Zm7.888,0h3.936V94.583H733.1Zm0,23.611h3.936v-3.936H733.1Zm0-15.74h3.936v-3.936H733.1Zm0,7.87h3.936v-3.936H733.1ZM705.511,130h3.936v-3.936h-3.936Zm-7.888,0h3.944v-3.936h-3.944Zm-7.88,0h3.935v-3.936h-3.935Zm0-7.87h3.935v-3.936h-3.935Zm0-23.611h3.935V94.583h-3.935Zm11.823-3.936h-3.944v3.936h3.944Zm7.881,0h-3.936v3.936h3.936Zm-3.936,27.547h3.936v-3.936h-3.936Zm0-15.74h3.936v-3.936h-3.936Z"/><rect class="cls-5" x="551.811" y="31.526" width="19.695" height="35.398"/><rect class="cls-2" x="551.811" y="31.524" width="19.695" height="8.85"/><rect class="cls-3" x="551.811" y="40.373" width="19.695" height="8.85"/><rect class="cls-4" x="551.811" y="49.236" width="19.695" height="8.85"/><path d="M972.129,39.005h2.037l6.193,18.088h.055l6.22-18.088h1.928l-7.287,20.809H979.4Z"/><path d="M988.685,56.277a4.2,4.2,0,0,1,.506-2.028,5,5,0,0,1,1.682-1.719,12.468,12.468,0,0,1,3.083-1.4,30.471,30.471,0,0,1,4.723-1.037v-.758a3.087,3.087,0,0,0-.764-2.292,3.045,3.045,0,0,0-2.225-.751,6.586,6.586,0,0,0-3.046.661,12.5,12.5,0,0,0-2.458,1.68l-1.047-1.212a11.831,11.831,0,0,1,2.941-1.974,8.8,8.8,0,0,1,3.788-.754,4.656,4.656,0,0,1,3.616,1.243,4.963,4.963,0,0,1,1.123,3.455v6.7a20.845,20.845,0,0,0,.1,2.213,5.759,5.759,0,0,0,.314,1.433h-1.994c-.092-.322-.172-.644-.24-.97a5.583,5.583,0,0,1-.1-1.147,9.2,9.2,0,0,1-2.709,1.772,8.033,8.033,0,0,1-3.105.591A4.458,4.458,0,0,1,989.782,59,3.455,3.455,0,0,1,988.685,56.277Zm1.928-.245a2.146,2.146,0,0,0,.71,1.759,2.991,2.991,0,0,0,1.965.587,6.887,6.887,0,0,0,2.907-.614,9.1,9.1,0,0,0,2.484-1.705V51.474a29.985,29.985,0,0,0-3.923.88,10.947,10.947,0,0,0-2.471,1.057,3.688,3.688,0,0,0-1.3,1.229A2.757,2.757,0,0,0,990.613,56.032Z"/><path d="M1005.064,59.732V39.005h1.928V59.732Z"/><path d="M1011.736,41.562V39.484h2.051v2.078Zm.055,18.17V44.98h1.927V59.732Z"/><path d="M1017.533,52.342a10.692,10.692,0,0,1,.477-3.361,6.767,6.767,0,0,1,1.319-2.386,5.39,5.39,0,0,1,1.986-1.425,6.343,6.343,0,0,1,2.459-.477,5.665,5.665,0,0,1,2.67.648,7.357,7.357,0,0,1,2.1,1.622V39.005h1.927V56.1a21.025,21.025,0,0,0,.1,2.208,4.952,4.952,0,0,0,.342,1.429h-2.025a6.7,6.7,0,0,1-.239-.991,7.063,7.063,0,0,1-.1-1.184,9.071,9.071,0,0,1-2.081,1.706,5.434,5.434,0,0,1-2.849.715,6.207,6.207,0,0,1-2.376-.459,5.02,5.02,0,0,1-1.932-1.412,7.118,7.118,0,0,1-1.291-2.386A10.722,10.722,0,0,1,1017.533,52.342Zm1.928.027a8.957,8.957,0,0,0,.348,2.642,5.366,5.366,0,0,0,.966,1.861,3.861,3.861,0,0,0,1.431,1.1,4.282,4.282,0,0,0,1.732.356,4.651,4.651,0,0,0,2.458-.651,10.524,10.524,0,0,0,2.143-1.772V48.729a9.506,9.506,0,0,0-2.2-1.807,4.76,4.76,0,0,0-2.4-.63,4.442,4.442,0,0,0-1.8.363,3.667,3.667,0,0,0-1.417,1.109,5.519,5.519,0,0,0-.924,1.9A9.709,9.709,0,0,0,1019.461,52.369Z"/><path d="M1034.048,56.277a4.2,4.2,0,0,1,.506-2.028,5,5,0,0,1,1.682-1.719,12.468,12.468,0,0,1,3.083-1.4,30.486,30.486,0,0,1,4.724-1.037v-.758a3.083,3.083,0,0,0-.765-2.292,3.045,3.045,0,0,0-2.225-.751,6.589,6.589,0,0,0-3.046.661,12.531,12.531,0,0,0-2.458,1.68l-1.046-1.212a11.826,11.826,0,0,1,2.94-1.974,8.8,8.8,0,0,1,3.788-.754,4.656,4.656,0,0,1,3.616,1.243,4.963,4.963,0,0,1,1.123,3.455v6.7a21.117,21.117,0,0,0,.1,2.213,5.755,5.755,0,0,0,.315,1.433h-2c-.091-.322-.172-.644-.24-.97a5.589,5.589,0,0,1-.1-1.147,9.226,9.226,0,0,1-2.709,1.772,8.041,8.041,0,0,1-3.106.591,4.46,4.46,0,0,1-3.083-.981A3.459,3.459,0,0,1,1034.048,56.277Zm1.928-.245a2.149,2.149,0,0,0,.71,1.759,2.991,2.991,0,0,0,1.965.587,6.884,6.884,0,0,0,2.907-.614,9.122,9.122,0,0,0,2.485-1.705V51.474a30,30,0,0,0-3.924.88,10.967,10.967,0,0,0-2.471,1.057,3.688,3.688,0,0,0-1.3,1.229A2.757,2.757,0,0,0,1035.976,56.032Z"/><path d="M1048.691,46.634V44.98h2.584V39.689h1.928V44.98h3.828v1.654H1053.2V55.9a2.911,2.911,0,0,0,.478,1.8,2.226,2.226,0,0,0,1.846.623h.827a2.5,2.5,0,0,0,.718-.1v1.531q-.342.054-.875.11a10.323,10.323,0,0,1-1.039.054,4.251,4.251,0,0,1-3-.854,3.746,3.746,0,0,1-.882-2.783V46.634Z"/><path d="M1059.4,52.335a9.177,9.177,0,0,1,.574-3.4,6.991,6.991,0,0,1,1.5-2.379,6.2,6.2,0,0,1,2.072-1.4,6.088,6.088,0,0,1,2.317-.465,5.807,5.807,0,0,1,2.4.492,5.2,5.2,0,0,1,1.9,1.456,7.151,7.151,0,0,1,1.264,2.406,10.809,10.809,0,0,1,.465,3.316v.369h-10.568a7.229,7.229,0,0,0,.376,2.431,5.549,5.549,0,0,0,1,1.787,4.245,4.245,0,0,0,3.267,1.5,4.8,4.8,0,0,0,2.7-.694,6.725,6.725,0,0,0,1.894-2.012l1.2.961a7.764,7.764,0,0,1-2.4,2.447,6.457,6.457,0,0,1-3.521.9,6.316,6.316,0,0,1-2.461-.492,5.646,5.646,0,0,1-2.054-1.477,7.489,7.489,0,0,1-1.409-2.406A9.568,9.568,0,0,1,1059.4,52.335Zm1.955-1.148h8.655a9.489,9.489,0,0,0-.376-1.932,4.981,4.981,0,0,0-.793-1.567,3.493,3.493,0,0,0-1.272-1.031,3.966,3.966,0,0,0-1.743-.365,4.119,4.119,0,0,0-1.545.3,4.021,4.021,0,0,0-1.347.9,5.1,5.1,0,0,0-1.025,1.519A7.08,7.08,0,0,0,1061.351,51.187Z"/><path d="M1074.709,52.342a10.692,10.692,0,0,1,.477-3.361,6.767,6.767,0,0,1,1.319-2.386,5.39,5.39,0,0,1,1.986-1.425,6.339,6.339,0,0,1,2.459-.477,5.667,5.667,0,0,1,2.67.648,7.352,7.352,0,0,1,2.094,1.622V39.005h1.928V56.1a20.755,20.755,0,0,0,.1,2.208,4.919,4.919,0,0,0,.342,1.429h-2.026a6.709,6.709,0,0,1-.238-.991,7.065,7.065,0,0,1-.1-1.184,9.049,9.049,0,0,1-2.081,1.706,5.43,5.43,0,0,1-2.848.715,6.207,6.207,0,0,1-2.376-.459,5.02,5.02,0,0,1-1.932-1.412,7.118,7.118,0,0,1-1.291-2.386A10.722,10.722,0,0,1,1074.709,52.342Zm1.927.027a8.955,8.955,0,0,0,.349,2.642,5.349,5.349,0,0,0,.966,1.861,3.866,3.866,0,0,0,1.43,1.1,4.286,4.286,0,0,0,1.733.356,4.651,4.651,0,0,0,2.458-.651,10.493,10.493,0,0,0,2.142-1.772V48.729a9.482,9.482,0,0,0-2.2-1.807,4.76,4.76,0,0,0-2.4-.63,4.438,4.438,0,0,0-1.8.363,3.66,3.66,0,0,0-1.417,1.109,5.538,5.538,0,0,0-.925,1.9A9.746,9.746,0,0,0,1076.636,52.369Z"/><path d="M1097.636,52.342a10.691,10.691,0,0,1,.478-3.361,6.766,6.766,0,0,1,1.318-2.386,5.4,5.4,0,0,1,1.987-1.425,6.339,6.339,0,0,1,2.459-.477,5.661,5.661,0,0,1,2.669.648,7.343,7.343,0,0,1,2.1,1.622V39.005h1.928V56.1a20.755,20.755,0,0,0,.1,2.208,4.922,4.922,0,0,0,.341,1.429h-2.025a6.585,6.585,0,0,1-.238-.991,6.961,6.961,0,0,1-.1-1.184,9.071,9.071,0,0,1-2.081,1.706,5.433,5.433,0,0,1-2.848.715,6.207,6.207,0,0,1-2.376-.459,5.012,5.012,0,0,1-1.932-1.412,7.1,7.1,0,0,1-1.291-2.386A10.721,10.721,0,0,1,1097.636,52.342Zm1.928.027a8.922,8.922,0,0,0,.349,2.642,5.332,5.332,0,0,0,.966,1.861,3.858,3.858,0,0,0,1.43,1.1,4.283,4.283,0,0,0,1.733.356,4.651,4.651,0,0,0,2.458-.651,10.547,10.547,0,0,0,2.142-1.772V48.729a9.5,9.5,0,0,0-2.2-1.807,4.76,4.76,0,0,0-2.4-.63,4.438,4.438,0,0,0-1.8.363,3.653,3.653,0,0,0-1.417,1.109,5.52,5.52,0,0,0-.925,1.9A9.709,9.709,0,0,0,1099.564,52.369Z"/><path d="M1114.152,56.277a4.2,4.2,0,0,1,.506-2.028,4.993,4.993,0,0,1,1.681-1.719,12.5,12.5,0,0,1,3.083-1.4,30.513,30.513,0,0,1,4.724-1.037v-.758a3.083,3.083,0,0,0-.765-2.292,3.041,3.041,0,0,0-2.224-.751,6.583,6.583,0,0,0-3.046.661,12.5,12.5,0,0,0-2.458,1.68l-1.047-1.212a11.831,11.831,0,0,1,2.941-1.974,8.8,8.8,0,0,1,3.788-.754,4.656,4.656,0,0,1,3.616,1.243,4.963,4.963,0,0,1,1.123,3.455v6.7a20.845,20.845,0,0,0,.1,2.213,5.759,5.759,0,0,0,.314,1.433h-1.994c-.092-.322-.172-.644-.24-.97a5.514,5.514,0,0,1-.1-1.147,9.213,9.213,0,0,1-2.709,1.772,8.033,8.033,0,0,1-3.1.591,4.456,4.456,0,0,1-3.083-.981A3.455,3.455,0,0,1,1114.152,56.277Zm1.928-.245a2.146,2.146,0,0,0,.71,1.759,2.99,2.99,0,0,0,1.965.587,6.891,6.891,0,0,0,2.907-.614,9.132,9.132,0,0,0,2.484-1.705V51.474a30.043,30.043,0,0,0-3.924.88,10.957,10.957,0,0,0-2.47,1.057,3.68,3.68,0,0,0-1.3,1.229A2.757,2.757,0,0,0,1116.08,56.032Z"/><path d="M1128.8,46.634V44.98h2.584V39.689h1.927V44.98h3.828v1.654h-3.828V55.9a2.9,2.9,0,0,0,.479,1.8,2.224,2.224,0,0,0,1.846.623h.827a2.494,2.494,0,0,0,.717-.1v1.531q-.34.054-.875.11a10.308,10.308,0,0,1-1.039.054,4.251,4.251,0,0,1-3-.854,3.746,3.746,0,0,1-.881-2.783V46.634Z"/><path d="M1139.582,56.277a4.2,4.2,0,0,1,.506-2.028,4.984,4.984,0,0,1,1.681-1.719,12.485,12.485,0,0,1,3.083-1.4,30.513,30.513,0,0,1,4.724-1.037v-.758a3.083,3.083,0,0,0-.765-2.292,3.044,3.044,0,0,0-2.224-.751,6.583,6.583,0,0,0-3.046.661,12.472,12.472,0,0,0-2.458,1.68l-1.047-1.212a11.826,11.826,0,0,1,2.94-1.974,8.807,8.807,0,0,1,3.788-.754,4.66,4.66,0,0,1,3.617,1.243,4.963,4.963,0,0,1,1.123,3.455v6.7a21.155,21.155,0,0,0,.1,2.213,5.755,5.755,0,0,0,.315,1.433h-1.994c-.092-.322-.172-.644-.241-.97a5.589,5.589,0,0,1-.1-1.147,9.226,9.226,0,0,1-2.709,1.772,8.034,8.034,0,0,1-3.106.591,4.46,4.46,0,0,1-3.083-.981A3.458,3.458,0,0,1,1139.582,56.277Zm1.927-.245a2.149,2.149,0,0,0,.71,1.759,2.991,2.991,0,0,0,1.965.587,6.884,6.884,0,0,0,2.907-.614,9.122,9.122,0,0,0,2.485-1.705V51.474a30,30,0,0,0-3.924.88,10.988,10.988,0,0,0-2.471,1.057,3.688,3.688,0,0,0-1.3,1.229A2.757,2.757,0,0,0,1141.509,56.032Z"/><path d="M1161.224,56.277a4.2,4.2,0,0,1,.506-2.028,5,5,0,0,1,1.682-1.719,12.468,12.468,0,0,1,3.083-1.4,30.471,30.471,0,0,1,4.723-1.037v-.758a3.083,3.083,0,0,0-.764-2.292,3.045,3.045,0,0,0-2.225-.751,6.586,6.586,0,0,0-3.046.661,12.5,12.5,0,0,0-2.458,1.68l-1.047-1.212a11.831,11.831,0,0,1,2.941-1.974,8.8,8.8,0,0,1,3.788-.754,4.656,4.656,0,0,1,3.616,1.243,4.963,4.963,0,0,1,1.123,3.455v6.7a20.845,20.845,0,0,0,.1,2.213,5.759,5.759,0,0,0,.314,1.433h-1.994c-.092-.322-.172-.644-.24-.97a5.583,5.583,0,0,1-.1-1.147,9.2,9.2,0,0,1-2.709,1.772,8.033,8.033,0,0,1-3.105.591,4.458,4.458,0,0,1-3.083-.981A3.455,3.455,0,0,1,1161.224,56.277Zm1.928-.245a2.146,2.146,0,0,0,.71,1.759,2.991,2.991,0,0,0,1.965.587,6.887,6.887,0,0,0,2.907-.614,9.1,9.1,0,0,0,2.484-1.705V51.474a29.985,29.985,0,0,0-3.923.88,10.947,10.947,0,0,0-2.471,1.057,3.688,3.688,0,0,0-1.3,1.229A2.757,2.757,0,0,0,1163.152,56.032Z"/><path d="M1176.619,52.342a10.692,10.692,0,0,1,.477-3.361,6.767,6.767,0,0,1,1.319-2.386,5.39,5.39,0,0,1,1.986-1.425,6.343,6.343,0,0,1,2.459-.477,5.665,5.665,0,0,1,2.67.648,7.37,7.37,0,0,1,2.1,1.622V39.005h1.927V56.1a21.025,21.025,0,0,0,.1,2.208,4.952,4.952,0,0,0,.342,1.429h-2.026a6.838,6.838,0,0,1-.238-.991,7.063,7.063,0,0,1-.1-1.184,9.071,9.071,0,0,1-2.081,1.706,5.437,5.437,0,0,1-2.849.715,6.207,6.207,0,0,1-2.376-.459,5.02,5.02,0,0,1-1.932-1.412,7.118,7.118,0,0,1-1.291-2.386A10.722,10.722,0,0,1,1176.619,52.342Zm1.928.027a8.957,8.957,0,0,0,.348,2.642,5.366,5.366,0,0,0,.966,1.861,3.861,3.861,0,0,0,1.431,1.1,4.282,4.282,0,0,0,1.732.356,4.651,4.651,0,0,0,2.458-.651,10.524,10.524,0,0,0,2.143-1.772V48.729a9.506,9.506,0,0,0-2.2-1.807,4.76,4.76,0,0,0-2.4-.63,4.442,4.442,0,0,0-1.8.363,3.667,3.667,0,0,0-1.417,1.109,5.538,5.538,0,0,0-.925,1.9A9.749,9.749,0,0,0,1178.547,52.369Z"/><path d="M1193.216,52.342a10.691,10.691,0,0,1,.478-3.361,6.766,6.766,0,0,1,1.318-2.386A5.4,5.4,0,0,1,1197,45.17a6.339,6.339,0,0,1,2.459-.477,5.667,5.667,0,0,1,2.67.648,7.352,7.352,0,0,1,2.094,1.622V39.005h1.928V56.1a20.755,20.755,0,0,0,.1,2.208,4.887,4.887,0,0,0,.342,1.429h-2.026a6.585,6.585,0,0,1-.238-.991,6.961,6.961,0,0,1-.1-1.184,9.049,9.049,0,0,1-2.081,1.706,5.433,5.433,0,0,1-2.848.715,6.207,6.207,0,0,1-2.376-.459,5.02,5.02,0,0,1-1.932-1.412,7.1,7.1,0,0,1-1.291-2.386A10.721,10.721,0,0,1,1193.216,52.342Zm1.928.027a8.922,8.922,0,0,0,.349,2.642,5.332,5.332,0,0,0,.966,1.861,3.858,3.858,0,0,0,1.43,1.1,4.283,4.283,0,0,0,1.733.356,4.651,4.651,0,0,0,2.458-.651,10.52,10.52,0,0,0,2.142-1.772V48.729a9.5,9.5,0,0,0-2.2-1.807,4.76,4.76,0,0,0-2.4-.63,4.438,4.438,0,0,0-1.8.363,3.66,3.66,0,0,0-1.417,1.109,5.52,5.52,0,0,0-.925,1.9A9.746,9.746,0,0,0,1195.144,52.369Z"/><path d="M1209.787,52.335a9.156,9.156,0,0,1,.574-3.4,6.991,6.991,0,0,1,1.5-2.379,6.193,6.193,0,0,1,2.071-1.4,6.093,6.093,0,0,1,2.318-.465,5.807,5.807,0,0,1,2.4.492,5.208,5.208,0,0,1,1.9,1.456,7.152,7.152,0,0,1,1.265,2.406,10.809,10.809,0,0,1,.465,3.316v.369h-10.569a7.229,7.229,0,0,0,.376,2.431,5.549,5.549,0,0,0,1.005,1.787,4.25,4.25,0,0,0,3.268,1.5,4.8,4.8,0,0,0,2.7-.694,6.75,6.75,0,0,0,1.894-2.012l1.2.961a7.756,7.756,0,0,1-2.4,2.447,6.453,6.453,0,0,1-3.52.9,6.313,6.313,0,0,1-2.461-.492,5.649,5.649,0,0,1-2.055-1.477,7.487,7.487,0,0,1-1.408-2.406A9.568,9.568,0,0,1,1209.787,52.335Zm1.955-1.148h8.654a9.356,9.356,0,0,0-.376-1.932,4.94,4.94,0,0,0-.793-1.567,3.49,3.49,0,0,0-1.271-1.031,3.966,3.966,0,0,0-1.743-.365,4.115,4.115,0,0,0-1.545.3,4,4,0,0,0-1.347.9,5.1,5.1,0,0,0-1.025,1.519A7.052,7.052,0,0,0,1211.742,51.187Z"/><path d="M1225.1,52.342a10.662,10.662,0,0,1,.478-3.361A6.766,6.766,0,0,1,1226.9,46.6a5.406,5.406,0,0,1,1.986-1.425,6.343,6.343,0,0,1,2.459-.477,5.665,5.665,0,0,1,2.67.648,7.343,7.343,0,0,1,2.1,1.622V39.005h1.928V56.1a20.755,20.755,0,0,0,.1,2.208,4.922,4.922,0,0,0,.341,1.429h-2.025a6.585,6.585,0,0,1-.238-.991,6.961,6.961,0,0,1-.1-1.184,9.071,9.071,0,0,1-2.081,1.706,5.434,5.434,0,0,1-2.849.715,6.214,6.214,0,0,1-2.376-.459,5.017,5.017,0,0,1-1.931-1.412,7.1,7.1,0,0,1-1.291-2.386A10.692,10.692,0,0,1,1225.1,52.342Zm1.928.027a8.922,8.922,0,0,0,.349,2.642,5.348,5.348,0,0,0,.965,1.861,3.869,3.869,0,0,0,1.431,1.1,4.283,4.283,0,0,0,1.733.356,4.654,4.654,0,0,0,2.458-.651,10.547,10.547,0,0,0,2.142-1.772V48.729a9.5,9.5,0,0,0-2.2-1.807,4.763,4.763,0,0,0-2.4-.63,4.435,4.435,0,0,0-1.8.363,3.653,3.653,0,0,0-1.417,1.109,5.52,5.52,0,0,0-.925,1.9A9.709,9.709,0,0,0,1227.027,52.369Z"/><path d="M1247.945,56.277a4.2,4.2,0,0,1,.506-2.028,4.993,4.993,0,0,1,1.681-1.719,12.5,12.5,0,0,1,3.083-1.4,30.513,30.513,0,0,1,4.724-1.037v-.758a3.083,3.083,0,0,0-.765-2.292,3.043,3.043,0,0,0-2.224-.751,6.583,6.583,0,0,0-3.046.661,12.472,12.472,0,0,0-2.458,1.68l-1.047-1.212a11.844,11.844,0,0,1,2.94-1.974,8.811,8.811,0,0,1,3.789-.754,4.656,4.656,0,0,1,3.616,1.243,4.963,4.963,0,0,1,1.123,3.455v6.7a20.845,20.845,0,0,0,.1,2.213,5.715,5.715,0,0,0,.314,1.433h-1.994c-.092-.322-.172-.644-.24-.97a5.514,5.514,0,0,1-.1-1.147,9.213,9.213,0,0,1-2.709,1.772,8.033,8.033,0,0,1-3.105.591,4.456,4.456,0,0,1-3.083-.981A3.455,3.455,0,0,1,1247.945,56.277Zm1.928-.245a2.146,2.146,0,0,0,.71,1.759,2.988,2.988,0,0,0,1.964.587,6.892,6.892,0,0,0,2.908-.614,9.132,9.132,0,0,0,2.484-1.705V51.474a30,30,0,0,0-3.924.88,10.957,10.957,0,0,0-2.47,1.057,3.68,3.68,0,0,0-1.3,1.229A2.757,2.757,0,0,0,1249.873,56.032Z"/><path d="M1263.121,57.393l1.23-1.122a6.578,6.578,0,0,0,1.948,1.559,5.643,5.643,0,0,0,2.646.576,5.093,5.093,0,0,0,2.871-.665,2.189,2.189,0,0,0,.971-1.926,2.031,2.031,0,0,0-.957-1.823,10.435,10.435,0,0,0-3.1-1.125l-2.213-.689a5.214,5.214,0,0,1-1.629-.8,3.185,3.185,0,0,1-.963-1.161,3.8,3.8,0,0,1-.322-1.652,3.42,3.42,0,0,1,.335-1.485,3.635,3.635,0,0,1,.978-1.238,4.8,4.8,0,0,1,1.565-.842,6.722,6.722,0,0,1,2.126-.307,7.837,7.837,0,0,1,3.2.574,7.509,7.509,0,0,1,2.27,1.56l-1.094,1.286a6.549,6.549,0,0,0-1.9-1.328,5.664,5.664,0,0,0-2.406-.493,5.177,5.177,0,0,0-1.477.182,2.867,2.867,0,0,0-.978.485,1.987,1.987,0,0,0-.56.687,1.83,1.83,0,0,0-.185.8,1.788,1.788,0,0,0,.832,1.595,8.991,8.991,0,0,0,2.771.991l2.416.736a5.529,5.529,0,0,1,1.768.869,3.455,3.455,0,0,1,1.056,1.289,4.421,4.421,0,0,1,.345,1.863,3.611,3.611,0,0,1-.438,1.793,4.081,4.081,0,0,1-1.189,1.33,5.321,5.321,0,0,1-1.8.819,9.241,9.241,0,0,1-2.31.272,7.729,7.729,0,0,1-3.466-.734A6.331,6.331,0,0,1,1263.121,57.393Z"/><path d="M984.645,95.732V75.005h1.928v8.123a10.08,10.08,0,0,1,2.078-1.7,5.3,5.3,0,0,1,2.857-.732,5.994,5.994,0,0,1,2.379.479,5.222,5.222,0,0,1,1.928,1.417A6.954,6.954,0,0,1,997.1,84.97a12.14,12.14,0,0,1,0,6.753,6.7,6.7,0,0,1-1.312,2.377,5.334,5.334,0,0,1-1.983,1.407,6.456,6.456,0,0,1-2.474.471,5.453,5.453,0,0,1-2.6-.625,8.949,8.949,0,0,1-2.16-1.618v2Zm1.928-3.762a9.109,9.109,0,0,0,2.2,1.793,4.839,4.839,0,0,0,2.393.616,4.523,4.523,0,0,0,1.811-.356,3.643,3.643,0,0,0,1.415-1.082,5.306,5.306,0,0,0,.923-1.861,9.623,9.623,0,0,0,.335-2.71A9.117,9.117,0,0,0,995.3,85.7a5.333,5.333,0,0,0-.97-1.882A3.989,3.989,0,0,0,992.9,82.71a4.2,4.2,0,0,0-1.736-.362,4.609,4.609,0,0,0-2.448.657,10.61,10.61,0,0,0-2.146,1.779Z"/><path d="M1001.407,95.732V75.005h1.928V95.732Z"/><path d="M1007.122,88.363a9.337,9.337,0,0,1,.532-3.274,7.178,7.178,0,0,1,1.441-2.407,6.029,6.029,0,0,1,2.131-1.483,6.707,6.707,0,0,1,2.588-.506,6.619,6.619,0,0,1,2.56.506,6.062,6.062,0,0,1,2.128,1.483,7.182,7.182,0,0,1,1.443,2.407,10.325,10.325,0,0,1,0,6.555,7.262,7.262,0,0,1-1.443,2.407,6.017,6.017,0,0,1-2.128,1.49,6.729,6.729,0,0,1-5.12,0,6.1,6.1,0,0,1-2.145-1.49,7.122,7.122,0,0,1-1.455-2.407A9.326,9.326,0,0,1,1007.122,88.363Zm1.927-.027a8.92,8.92,0,0,0,.294,2.324,5.786,5.786,0,0,0,.9,1.921,4.511,4.511,0,0,0,1.5,1.319,4.621,4.621,0,0,0,4.066.041,4.456,4.456,0,0,0,1.486-1.251,5.706,5.706,0,0,0,.938-1.9,8.755,8.755,0,0,0,.321-2.454,8.371,8.371,0,0,0-.307-2.29,6,6,0,0,0-.9-1.9,4.487,4.487,0,0,0-1.471-1.3,4.167,4.167,0,0,0-2.061-.492,4.343,4.343,0,0,0-2.006.451,4.419,4.419,0,0,0-1.5,1.244,5.613,5.613,0,0,0-.938,1.9A8.561,8.561,0,0,0,1009.049,88.336Z"/><path d="M1023.282,88.363a9.49,9.49,0,0,1,.557-3.425,7.023,7.023,0,0,1,1.476-2.392,5.726,5.726,0,0,1,2.116-1.4,6.85,6.85,0,0,1,2.427-.451,6.245,6.245,0,0,1,2.085.322,5.024,5.024,0,0,1,1.579.881,6.194,6.194,0,0,1,1.162,1.292,8.486,8.486,0,0,1,.821,1.538l-1.641.725a6.022,6.022,0,0,0-1.566-2.3,3.711,3.711,0,0,0-2.495-.8,4.7,4.7,0,0,0-1.647.307,3.791,3.791,0,0,0-1.484,1.026,5.355,5.355,0,0,0-1.059,1.859,8.45,8.45,0,0,0-.4,2.8,8.725,8.725,0,0,0,.348,2.584,5.827,5.827,0,0,0,.95,1.886,4.142,4.142,0,0,0,1.429,1.176,3.986,3.986,0,0,0,1.8.41,3.927,3.927,0,0,0,2.5-.745,6.648,6.648,0,0,0,1.743-2.4l1.559.67a11.151,11.151,0,0,1-.985,1.7,5.755,5.755,0,0,1-1.264,1.306,5.682,5.682,0,0,1-1.613.827,6.452,6.452,0,0,1-2.017.294,6,6,0,0,1-2.42-.506,5.845,5.845,0,0,1-2.041-1.49,7.309,7.309,0,0,1-1.395-2.407A9.621,9.621,0,0,1,1023.282,88.363Z"/><path d="M1038.991,95.732V75.005h1.928V88.76l7.027-7.78h2.269l-4.812,5.209,5.4,9.543H1048.7l-4.58-8.066-3.2,3.418v4.648Z"/><path d="M1058.583,82.635V80.98h2.584V75.689h1.927V80.98h3.828v1.655h-3.828V91.9a2.909,2.909,0,0,0,.479,1.8,2.224,2.224,0,0,0,1.846.623h.827a2.466,2.466,0,0,0,.718-.1V95.76c-.228.036-.52.073-.875.109a10.35,10.35,0,0,1-1.04.055,4.246,4.246,0,0,1-3-.855,3.748,3.748,0,0,1-.881-2.782V82.635Z"/><path d="M1069.288,88.363a9.337,9.337,0,0,1,.532-3.274,7.178,7.178,0,0,1,1.441-2.407,6.029,6.029,0,0,1,2.131-1.483,6.707,6.707,0,0,1,2.588-.506,6.619,6.619,0,0,1,2.56.506,6.062,6.062,0,0,1,2.128,1.483,7.165,7.165,0,0,1,1.443,2.407,10.325,10.325,0,0,1,0,6.555,7.245,7.245,0,0,1-1.443,2.407,6.017,6.017,0,0,1-2.128,1.49,6.729,6.729,0,0,1-5.12,0,6.1,6.1,0,0,1-2.145-1.49,7.122,7.122,0,0,1-1.455-2.407A9.326,9.326,0,0,1,1069.288,88.363Zm1.927-.027a8.92,8.92,0,0,0,.294,2.324,5.786,5.786,0,0,0,.9,1.921,4.511,4.511,0,0,0,1.5,1.319,4.621,4.621,0,0,0,4.066.041,4.456,4.456,0,0,0,1.486-1.251,5.706,5.706,0,0,0,.938-1.9,8.755,8.755,0,0,0,.321-2.454,8.371,8.371,0,0,0-.307-2.29,6,6,0,0,0-.9-1.9,4.487,4.487,0,0,0-1.471-1.3,4.167,4.167,0,0,0-2.061-.492,4.343,4.343,0,0,0-2.006.451,4.419,4.419,0,0,0-1.5,1.244,5.613,5.613,0,0,0-.938,1.9A8.561,8.561,0,0,0,1071.215,88.336Z"/><path d="M1091.778,88.336a9.158,9.158,0,0,1,.574-3.4,6.991,6.991,0,0,1,1.5-2.379,6.218,6.218,0,0,1,2.071-1.4,6.1,6.1,0,0,1,2.318-.465,5.807,5.807,0,0,1,2.4.492,5.233,5.233,0,0,1,1.9,1.456,7.156,7.156,0,0,1,1.264,2.407,10.8,10.8,0,0,1,.465,3.315v.369h-10.568a7.235,7.235,0,0,0,.376,2.432,5.544,5.544,0,0,0,1,1.786,4.245,4.245,0,0,0,3.267,1.5,4.8,4.8,0,0,0,2.7-.693,6.73,6.73,0,0,0,1.894-2.013l1.2.961a7.753,7.753,0,0,1-2.4,2.447,6.451,6.451,0,0,1-3.521.9,6.316,6.316,0,0,1-2.461-.492,5.673,5.673,0,0,1-2.055-1.477,7.505,7.505,0,0,1-1.408-2.406A9.576,9.576,0,0,1,1091.778,88.336Zm1.955-1.149h8.654a9.346,9.346,0,0,0-.376-1.931,4.945,4.945,0,0,0-.793-1.568,3.482,3.482,0,0,0-1.271-1.031,3.98,3.98,0,0,0-1.743-.364,4.1,4.1,0,0,0-1.545.3,4.008,4.008,0,0,0-1.347.9,5.089,5.089,0,0,0-1.025,1.52A7.045,7.045,0,0,0,1093.733,87.187Z"/><path d="M1105.942,95.732l5.305-7.642-4.936-7.11h2.16l3.828,5.674,3.842-5.674h2.106l-4.963,7.11,5.291,7.642h-2.133l-4.225-6.193-4.2,6.193Z"/><path d="M1121.747,77.562V75.484h2.05v2.078Zm.054,18.17V80.98h1.928V95.732Z"/><path d="M1127.325,93.393l1.23-1.122a6.573,6.573,0,0,0,1.949,1.56,5.636,5.636,0,0,0,2.645.575,5.093,5.093,0,0,0,2.871-.665,2.188,2.188,0,0,0,.971-1.926,2.03,2.03,0,0,0-.957-1.823,10.492,10.492,0,0,0-3.1-1.125l-2.213-.688a5.219,5.219,0,0,1-1.628-.8,3.188,3.188,0,0,1-.964-1.161,3.808,3.808,0,0,1-.322-1.653,3.419,3.419,0,0,1,.335-1.484,3.617,3.617,0,0,1,.978-1.238,4.8,4.8,0,0,1,1.565-.842,6.729,6.729,0,0,1,2.126-.308,7.854,7.854,0,0,1,3.2.574,7.527,7.527,0,0,1,2.27,1.56l-1.094,1.286a6.514,6.514,0,0,0-1.9-1.327,5.664,5.664,0,0,0-2.406-.493,5.18,5.18,0,0,0-1.477.181,2.871,2.871,0,0,0-.977.486,1.987,1.987,0,0,0-.561.686,1.833,1.833,0,0,0-.185.8,1.79,1.79,0,0,0,.832,1.6,9.021,9.021,0,0,0,2.771.99l2.416.736a5.526,5.526,0,0,1,1.769.87,3.454,3.454,0,0,1,1.055,1.289,4.421,4.421,0,0,1,.345,1.863,3.613,3.613,0,0,1-.438,1.793,4.091,4.091,0,0,1-1.189,1.33,5.32,5.32,0,0,1-1.805.818,9.188,9.188,0,0,1-2.31.273,7.716,7.716,0,0,1-3.466-.735A6.331,6.331,0,0,1,1127.325,93.393Z"/><path d="M1140.682,82.635V80.98h2.584V75.689h1.928V80.98h3.828v1.655h-3.828V91.9a2.909,2.909,0,0,0,.478,1.8,2.226,2.226,0,0,0,1.846.623h.827a2.462,2.462,0,0,0,.718-.1V95.76c-.227.036-.519.073-.875.109a10.315,10.315,0,0,1-1.039.055,4.246,4.246,0,0,1-3-.855,3.743,3.743,0,0,1-.882-2.782V82.635Z"/><path d="M1152.59,77.562V75.484h2.051v2.078Zm.055,18.17V80.98h1.928V95.732Z"/><path d="M1159.208,95.732V80.98h1.927v2.325a10.9,10.9,0,0,1,2.468-1.839,6.447,6.447,0,0,1,3.165-.773,4.349,4.349,0,0,1,3.288,1.149,4.47,4.47,0,0,1,1.1,3.226V95.732h-1.928V85.424a3.29,3.29,0,0,0-.711-2.318,2.921,2.921,0,0,0-2.228-.758,5.405,5.405,0,0,0-2.659.683,12.187,12.187,0,0,0-2.5,1.887V95.732Z"/><path d="M1173.823,97.667a2.981,2.981,0,0,1,.724-2,4.833,4.833,0,0,1,2.024-1.343,1.894,1.894,0,0,1-1.285-1.881,1.847,1.847,0,0,1,.48-1.228,4.18,4.18,0,0,1,1.283-.969,4.783,4.783,0,0,1-1.654-1.771,5.454,5.454,0,0,1-.143-4.621,5.038,5.038,0,0,1,1.216-1.675,5.655,5.655,0,0,1,1.839-1.093,7.074,7.074,0,0,1,4.673,0,5.467,5.467,0,0,1,1.844,1.121,6.935,6.935,0,0,1,1.568-.855,7.2,7.2,0,0,1,1.827-.485V82.8a8.944,8.944,0,0,0-1.342.107,5.666,5.666,0,0,0-1.344.377,4.6,4.6,0,0,1,.854,2.787,5.02,5.02,0,0,1-.448,2.15,4.928,4.928,0,0,1-1.215,1.635,5.288,5.288,0,0,1-1.819,1.035,7,7,0,0,1-2.274.358,6.651,6.651,0,0,1-2.378-.41,2.687,2.687,0,0,0-.855.525.974.974,0,0,0-.321.73.784.784,0,0,0,.459.727,5.439,5.439,0,0,0,1.72.4l3.221.246a8.119,8.119,0,0,1,3.869,1.114,2.979,2.979,0,0,1,1.313,2.625,3.259,3.259,0,0,1-.5,1.792,4.027,4.027,0,0,1-1.4,1.311,7.476,7.476,0,0,1-2.144.8,12.612,12.612,0,0,1-2.765.281,10.858,10.858,0,0,1-5.325-1A3.051,3.051,0,0,1,1173.823,97.667Zm1.873-.24a1.954,1.954,0,0,0,1.278,1.8,9.833,9.833,0,0,0,4.068.625,7.668,7.668,0,0,0,3.541-.679,2.024,2.024,0,0,0,1.285-1.792,1.752,1.752,0,0,0-.917-1.6,7.614,7.614,0,0,0-3.092-.706l-2.921-.238-.781-.083a3.863,3.863,0,0,0-1.86,1.115A2.393,2.393,0,0,0,1175.7,97.427Zm.984-11.388a3.553,3.553,0,0,0,1.08,2.721,4.659,4.659,0,0,0,5.777.015A3.5,3.5,0,0,0,1184.6,86.1a3.819,3.819,0,0,0-1.032-2.825,4.631,4.631,0,0,0-5.831,0A3.7,3.7,0,0,0,1176.68,86.039Z"/><path d="M1196.751,88.363a9.513,9.513,0,0,1,.556-3.425,7.025,7.025,0,0,1,1.477-2.392,5.726,5.726,0,0,1,2.116-1.4,6.845,6.845,0,0,1,2.427-.451,6.25,6.25,0,0,1,2.085.322,5.024,5.024,0,0,1,1.579.881,6.194,6.194,0,0,1,1.162,1.292,8.42,8.42,0,0,1,.82,1.538l-1.64.725a6.022,6.022,0,0,0-1.566-2.3,3.711,3.711,0,0,0-2.5-.8,4.7,4.7,0,0,0-1.647.307,3.791,3.791,0,0,0-1.484,1.026,5.355,5.355,0,0,0-1.059,1.859,8.448,8.448,0,0,0-.4,2.8,8.724,8.724,0,0,0,.349,2.584,5.807,5.807,0,0,0,.95,1.886,4.142,4.142,0,0,0,1.429,1.176,3.983,3.983,0,0,0,1.8.41,3.927,3.927,0,0,0,2.5-.745,6.648,6.648,0,0,0,1.743-2.4l1.559.67a11.151,11.151,0,0,1-.985,1.7,5.755,5.755,0,0,1-1.264,1.306,5.674,5.674,0,0,1-1.614.827,6.441,6.441,0,0,1-2.016.294,6,6,0,0,1-2.42-.506,5.836,5.836,0,0,1-2.041-1.49,7.309,7.309,0,0,1-1.395-2.407A9.6,9.6,0,0,1,1196.751,88.363Z"/><path d="M1212.46,95.732V75.005h1.927v8.3a10.9,10.9,0,0,1,2.468-1.839,6.447,6.447,0,0,1,3.165-.773,4.349,4.349,0,0,1,3.288,1.149,4.47,4.47,0,0,1,1.1,3.226V95.732h-1.928V85.424a3.29,3.29,0,0,0-.711-2.318,2.921,2.921,0,0,0-2.228-.758,5.412,5.412,0,0,0-2.66.683,12.21,12.21,0,0,0-2.5,1.887V95.732Z"/><path d="M1227.827,92.277a4.2,4.2,0,0,1,.506-2.027,5,5,0,0,1,1.681-1.72,12.523,12.523,0,0,1,3.083-1.4,30.513,30.513,0,0,1,4.724-1.037v-.758a3.081,3.081,0,0,0-.765-2.292,3.043,3.043,0,0,0-2.224-.751,6.583,6.583,0,0,0-3.046.661,12.429,12.429,0,0,0-2.458,1.68l-1.047-1.212a11.8,11.8,0,0,1,2.94-1.975,8.807,8.807,0,0,1,3.788-.754,4.657,4.657,0,0,1,3.617,1.243,4.967,4.967,0,0,1,1.123,3.455v6.7a21.168,21.168,0,0,0,.1,2.213,5.747,5.747,0,0,0,.315,1.432h-1.994c-.092-.321-.172-.643-.241-.969a5.6,5.6,0,0,1-.1-1.148,9.25,9.25,0,0,1-2.709,1.773,8.052,8.052,0,0,1-3.106.59,4.464,4.464,0,0,1-3.083-.98A3.46,3.46,0,0,1,1227.827,92.277Zm1.928-.245a2.152,2.152,0,0,0,.709,1.76,3,3,0,0,0,1.965.587,6.892,6.892,0,0,0,2.908-.614,9.136,9.136,0,0,0,2.484-1.706V87.474a30,30,0,0,0-3.924.88,10.985,10.985,0,0,0-2.471,1.058,3.691,3.691,0,0,0-1.3,1.228A2.76,2.76,0,0,0,1229.755,92.032Z"/><path d="M1244.151,77.562V75.484h2.051v2.078Zm.055,18.17V80.98h1.927V95.732Z"/><path d="M1250.768,95.732V80.98h1.928v2.325a10.873,10.873,0,0,1,2.468-1.839,6.445,6.445,0,0,1,3.165-.773,4.351,4.351,0,0,1,3.288,1.149,4.474,4.474,0,0,1,1.1,3.226V95.732h-1.927V85.424a3.3,3.3,0,0,0-.711-2.318,2.923,2.923,0,0,0-2.229-.758,5.408,5.408,0,0,0-2.659.683,12.21,12.21,0,0,0-2.5,1.887V95.732Z"/><path d="M1335.958,177.5V156.776h7.171a8.41,8.41,0,0,1,5.261,1.376,4.615,4.615,0,0,1,1.745,3.841,5.308,5.308,0,0,1-.305,1.877,4.218,4.218,0,0,1-.85,1.4,4.665,4.665,0,0,1-1.249.963,5.983,5.983,0,0,1-1.495.553v.055a7.062,7.062,0,0,1,1.788.553,4.98,4.98,0,0,1,1.462,1.026,4.563,4.563,0,0,1,.973,1.483,5.182,5.182,0,0,1,.346,1.969,5.894,5.894,0,0,1-.429,2.27,4.646,4.646,0,0,1-1.309,1.784,6.282,6.282,0,0,1-2.209,1.162,10.441,10.441,0,0,1-3.115.417Zm1.927-11.512h5.079a7,7,0,0,0,3.868-.907,3.678,3.678,0,0,0,.136-5.623,7.022,7.022,0,0,0-3.949-.866h-5.134Zm0,9.748h5.831a6.11,6.11,0,0,0,3.929-1.025,3.6,3.6,0,0,0,1.233-2.926,3.383,3.383,0,0,0-1.547-3.076,7.834,7.834,0,0,0-4.23-.985h-5.216Z"/><path d="M1354.88,177.5V156.776h1.927V177.5Z"/><path d="M1360.594,170.134a9.338,9.338,0,0,1,.533-3.275,7.163,7.163,0,0,1,1.441-2.406,6,6,0,0,1,2.131-1.483,6.7,6.7,0,0,1,2.588-.506,6.614,6.614,0,0,1,2.559.506,6.031,6.031,0,0,1,2.128,1.483,7.153,7.153,0,0,1,1.444,2.406,10.328,10.328,0,0,1,0,6.556,7.243,7.243,0,0,1-1.444,2.406,6,6,0,0,1-2.128,1.49,6.729,6.729,0,0,1-5.12,0,6.1,6.1,0,0,1-2.144-1.49,7.1,7.1,0,0,1-1.455-2.406A9.325,9.325,0,0,1,1360.594,170.134Zm1.928-.028a8.927,8.927,0,0,0,.294,2.325,5.742,5.742,0,0,0,.9,1.92,4.514,4.514,0,0,0,1.5,1.32,4.621,4.621,0,0,0,4.066.041,4.453,4.453,0,0,0,1.485-1.251,5.7,5.7,0,0,0,.939-1.9,8.745,8.745,0,0,0,.321-2.454,8.343,8.343,0,0,0-.308-2.29,6,6,0,0,0-.9-1.9,4.5,4.5,0,0,0-1.472-1.306,4.163,4.163,0,0,0-2.06-.492,4.343,4.343,0,0,0-2.006.451,4.431,4.431,0,0,0-1.5,1.244,5.62,5.62,0,0,0-.939,1.9A8.6,8.6,0,0,0,1362.522,170.106Z"/><path d="M1376.755,170.134a9.509,9.509,0,0,1,.556-3.425,7.014,7.014,0,0,1,1.477-2.393,5.723,5.723,0,0,1,2.116-1.4,6.823,6.823,0,0,1,2.427-.451,6.25,6.25,0,0,1,2.085.321,5.057,5.057,0,0,1,1.579.882,6.194,6.194,0,0,1,1.162,1.292,8.448,8.448,0,0,1,.82,1.538l-1.64.725a6.014,6.014,0,0,0-1.566-2.3,3.712,3.712,0,0,0-2.495-.8,4.7,4.7,0,0,0-1.647.308,3.8,3.8,0,0,0-1.484,1.025,5.373,5.373,0,0,0-1.059,1.859,8.452,8.452,0,0,0-.4,2.8,8.687,8.687,0,0,0,.349,2.584,5.822,5.822,0,0,0,.95,1.887,4.144,4.144,0,0,0,1.429,1.176,4,4,0,0,0,1.8.41,3.927,3.927,0,0,0,2.495-.745,6.644,6.644,0,0,0,1.743-2.4l1.559.67a11.185,11.185,0,0,1-.985,1.7,5.735,5.735,0,0,1-1.264,1.306,5.623,5.623,0,0,1-1.614.827,6.412,6.412,0,0,1-2.016.294,6,6,0,0,1-2.42-.506,5.836,5.836,0,0,1-2.041-1.49,7.3,7.3,0,0,1-1.395-2.406A9.6,9.6,0,0,1,1376.755,170.134Z"/><path d="M1392.464,177.5V156.776h1.927V170.53l7.028-7.779h2.269l-4.812,5.209,5.4,9.543h-2.105l-4.581-8.067-3.2,3.418V177.5Z"/><path d="M1405.862,170.134a9.486,9.486,0,0,1,.557-3.425,7.028,7.028,0,0,1,1.476-2.393,5.731,5.731,0,0,1,2.116-1.4,6.827,6.827,0,0,1,2.427-.451,6.246,6.246,0,0,1,2.085.321,5.035,5.035,0,0,1,1.579.882,6.194,6.194,0,0,1,1.162,1.292,8.453,8.453,0,0,1,.821,1.538l-1.641.725a6.013,6.013,0,0,0-1.565-2.3,3.715,3.715,0,0,0-2.5-.8,4.706,4.706,0,0,0-1.647.308,3.788,3.788,0,0,0-1.483,1.025,5.374,5.374,0,0,0-1.06,1.859,8.454,8.454,0,0,0-.4,2.8,8.721,8.721,0,0,0,.348,2.584,5.824,5.824,0,0,0,.951,1.887,4.141,4.141,0,0,0,1.428,1.176,4,4,0,0,0,1.8.41,3.927,3.927,0,0,0,2.495-.745,6.644,6.644,0,0,0,1.743-2.4l1.559.67a11.182,11.182,0,0,1-.984,1.7,5.76,5.76,0,0,1-1.265,1.306,5.631,5.631,0,0,1-1.613.827,6.423,6.423,0,0,1-2.017.294,6.005,6.005,0,0,1-2.42-.506,5.845,5.845,0,0,1-2.041-1.49,7.285,7.285,0,0,1-1.394-2.406A9.6,9.6,0,0,1,1405.862,170.134Z"/><path d="M1421.571,177.5V156.776h1.928v8.3a10.919,10.919,0,0,1,2.467-1.839,6.46,6.46,0,0,1,3.165-.772,4.357,4.357,0,0,1,3.289,1.148,4.478,4.478,0,0,1,1.1,3.227V177.5h-1.928V167.194a3.287,3.287,0,0,0-.711-2.317,2.92,2.92,0,0,0-2.228-.759,5.409,5.409,0,0,0-2.659.684,12.239,12.239,0,0,0-2.495,1.886V177.5Z"/><path d="M1436.938,174.048a4.2,4.2,0,0,1,.506-2.028,4.988,4.988,0,0,1,1.682-1.719,12.468,12.468,0,0,1,3.083-1.4,30.471,30.471,0,0,1,4.723-1.037v-.758a3.087,3.087,0,0,0-.764-2.292,3.045,3.045,0,0,0-2.225-.751,6.586,6.586,0,0,0-3.046.661,12.5,12.5,0,0,0-2.458,1.68l-1.047-1.212a11.831,11.831,0,0,1,2.941-1.974,8.8,8.8,0,0,1,3.788-.754,4.656,4.656,0,0,1,3.616,1.243,4.963,4.963,0,0,1,1.123,3.455v6.695a20.845,20.845,0,0,0,.1,2.213,5.759,5.759,0,0,0,.314,1.433h-1.994c-.092-.322-.172-.644-.24-.97a5.514,5.514,0,0,1-.1-1.147,9.213,9.213,0,0,1-2.709,1.772,8.033,8.033,0,0,1-3.105.591,4.458,4.458,0,0,1-3.083-.981A3.455,3.455,0,0,1,1436.938,174.048Zm1.928-.245a2.146,2.146,0,0,0,.71,1.759,2.99,2.99,0,0,0,1.965.587,6.887,6.887,0,0,0,2.907-.614,9.117,9.117,0,0,0,2.484-1.7v-4.585a30.043,30.043,0,0,0-3.924.88,10.957,10.957,0,0,0-2.47,1.057,3.68,3.68,0,0,0-1.3,1.229A2.757,2.757,0,0,0,1438.866,173.8Z"/><path d="M1453.262,159.333v-2.078h2.051v2.078Zm.055,18.17V162.751h1.928V177.5Z"/><path d="M1459.88,177.5V162.751h1.927v2.324a10.9,10.9,0,0,1,2.468-1.839,6.458,6.458,0,0,1,3.165-.772,4.353,4.353,0,0,1,3.288,1.148,4.475,4.475,0,0,1,1.1,3.227V177.5H1469.9V167.194a3.287,3.287,0,0,0-.711-2.317,2.923,2.923,0,0,0-2.228-.759,5.413,5.413,0,0,0-2.66.684,12.239,12.239,0,0,0-2.495,1.886V177.5Z"/><path d="M1440.224,0V29.067l-8.325,2.886V10.727h-56.6V34.854l-8.325,2.886V21.453h-56.6V130h56.6V41.894l8.325-2.886v80.266h56.6V36.106l8.325-2.886v75.328h56.6V0Zm-77.173,126.076H1314.3V25.377h48.752V39.1l-19.839,6.879a5.867,5.867,0,0,1,1.289,3.674v.033l18.551-6.433Zm64.924-10.725h-48.752v-77.7l19.75-6.848a5.867,5.867,0,0,1-1.288-3.675v-.032l-18.463,6.4V14.65h48.752V33.313l-19.8,6.865a5.869,5.869,0,0,1,1.29,3.675c0,.011,0,.021,0,.032l18.511-6.418Zm64.924-10.727h-48.751V31.859L1463.937,25a5.865,5.865,0,0,1-1.29-3.675l0-.032-18.5,6.415V3.924H1492.9Zm-36.89-12.007h25.029v3.924h-25.029Zm0-23.59h25.029v3.924h-25.029Zm0,11.8h25.029v3.924h-25.029Zm0-19.728h25.025V45.376h-25.025Zm3.924-11.794h17.177v7.87h-17.177Zm-133.774,64.769h25.028v3.924h-25.028Zm0-23.589h25.028V94.4h-25.028Zm0,11.8h25.028V106.2h-25.028Zm0-19.728h25.024V66.829h-25.024Zm3.924-11.794h17.176v7.87h-17.176Zm61,32.59h25.028v3.924h-25.028Zm0-23.589h25.028v3.924h-25.028Zm0,11.8h25.028v3.923h-25.028Zm0-19.728h25.024V56.1h-25.024Zm3.924-11.795h17.177V67.9h-17.177Z"/><path class="cls-6" d="M1403.567,37.955a5.9,5.9,0,1,0,5.9,5.9A5.9,5.9,0,0,0,1403.567,37.955Z"/><path class="cls-6" d="M1403.58,21.227a5.9,5.9,0,1,0,5.9,5.9A5.9,5.9,0,0,0,1403.58,21.227Z"/><path class="cls-6" d="M1468.545,15.425a5.9,5.9,0,1,0,5.9,5.9A5.9,5.9,0,0,0,1468.545,15.425Z"/><path class="cls-6" d="M1338.6,43.757a5.9,5.9,0,1,0,5.9,5.9A5.9,5.9,0,0,0,1338.6,43.757Z"/><circle class="cls-2" cx="1338.604" cy="49.654" r="5.897"/><path class="cls-3" d="M1409.479,27.124a5.9,5.9,0,1,1-5.9-5.9A5.9,5.9,0,0,1,1409.479,27.124Z"/><path class="cls-4" d="M1409.466,43.853a5.9,5.9,0,1,1-5.9-5.9A5.9,5.9,0,0,1,1409.466,43.853Z"/><line class="cls-7" x1="219.297" y1="65" x2="300.111" y2="65"/><polygon class="cls-8" points="297.922 72.479 310.874 65 297.922 57.52 297.922 72.479"/><line class="cls-7" x1="821.574" y1="65" x2="902.387" y2="65"/><polygon class="cls-8" points="900.199 72.479 913.151 65 900.199 57.52 900.199 72.479"/></g></g></svg>